<svg width="42" height="42" viewBox="0 0 42 42" fill="none" xmlns="http://www.w3.org/2000/svg">
<circle cx="21" cy="21" r="20" stroke="#121212"/>
<mask id="mask0_27_7" style="mask-type:alpha" maskUnits="userSpaceOnUse" x="5" y="6" width="30" height="34">
<path d="M18.2341 23.734C18.3172 23.8665 18.3963 23.9935 18.4716 24.116C19.732 26.1648 20.1514 28.5966 20.0532 31V31V34.0426V34.0426C20.0773 36.0125 19.4161 37.9239 18.2341 39.5V39.5" stroke="black" stroke-linecap="round"/>
<path d="M32.7872 35.8617V35.8617C31.6064 34.2873 30.9681 32.3723 30.9681 30.4043V29.7738C30.9681 28.1915 31.3237 26.6333 31.9443 25.1778C32.536 23.7901 32.9884 22.5877 33.4724 21.1317C33.833 20.0468 34 18.9078 34 17.7646V17.2014C34 14.7706 33.1002 12.4258 31.4741 10.619L31.0954 10.1983C29.4704 8.3927 27.1555 7.36169 24.7263 7.36169V7.36169C22.8737 7.36169 21.046 7.93243 19.6323 9.12975C19.1547 9.53418 18.7051 9.93817 18.2431 10.377C17.0376 11.5222 16.4149 13.1409 16.4149 14.8037V14.8037C16.4149 15.4974 16.5267 16.1866 16.7461 16.8446L16.7846 16.9604C17.3286 18.5924 18.4384 19.9758 19.9135 20.8609L20.6595 21.3085" stroke="black" stroke-linecap="round"/>
<path d="M16.4149 14.6383L7.8013 19.2322C7.48061 19.4033 7.17458 19.6022 6.89983 19.8401C6.47619 20.2069 6.1836 20.5065 5.86704 20.8718C5.62549 21.1505 5.5 21.5102 5.5 21.879V21.879C5.5 22.2911 5.65198 22.696 5.96178 22.9677C6.21083 23.1861 6.44261 23.3457 6.71307 23.4823C7.10108 23.6782 7.54117 23.7341 7.97583 23.7341H10.3511H20.0532" stroke="black" stroke-linecap="round"/>
<path d="M11.5638 17.0638L13.6941 18.0783C13.9683 18.2088 14.2683 18.2766 14.572 18.2766V18.2766C15.4397 18.2766 16.2127 17.7282 16.4994 16.9092L16.6575 16.4575" stroke="black"/>
<path d="M24 14C24 14.2447 24 14.4337 24 14.5781C24 14.8542 24.2239 14.9221 24.5 14.9221V14.9221C24.7761 14.9221 25 14.6982 25 14.4221V14" stroke="black"/>
<path d="M14 16C14.4 16.4 14.5 16.5 14.5 16.5" stroke="black" stroke-linecap="round"/>
</mask>
<g mask="url(#mask0_27_7)">
<circle cx="21" cy="21" r="20" fill="#121212"/>
<path d="M39.5 21.5C39.5 31.7295 31.3171 40 21.25 40C11.1829 40 3 31.7295 3 21.5C3 11.2705 11.1829 3 21.25 3C31.3171 3 39.5 11.2705 39.5 21.5Z" stroke="white" stroke-width="2"/>
</g>
</svg>
